HIERARCHY
ROOT Hips
{
 OFFSET 0.000000 0.000000 0.000000
 CHANNELS 6 Xposition Yposition Zposition Yrotation Xrotation Zrotation
 JOINT Chest
 {
  OFFSET 0.000000 9.585900 0.002600
  CHANNELS 3 Yrotation Xrotation Zrotation
  JOINT Chest2
  {
   OFFSET 0.000000 9.601200 -0.005300
   CHANNELS 3 Yrotation Xrotation Zrotation
   JOINT Chest3
   {
    OFFSET 0.000000 9.561800 0.000000
    CHANNELS 3 Yrotation Xrotation Zrotation
    JOINT Chest4
    {
     OFFSET 0.000000 9.552100 0.000000
     CHANNELS 3 Yrotation Xrotation Zrotation
     JOINT Neck
     {
      OFFSET 0.000000 14.453000 0.000000
      CHANNELS 3 Yrotation Xrotation Zrotation
      JOINT Head
      {
       OFFSET 0.000000 8.936500 -0.011300
       CHANNELS 3 Yrotation Xrotation Zrotation
       End Site
       {
        OFFSET 0.000000 17.073600 -0.006000
       }
      }
     }
     JOINT RightCollar
     {
      OFFSET -2.921100 9.558500 0.000000
      CHANNELS 3 Yrotation Xrotation Zrotation
      JOINT RightShoulder
      {
       OFFSET -13.519700 0.000000 0.000000
       CHANNELS 3 Yrotation Xrotation Zrotation
       JOINT RightElbow
       {
        OFFSET 0.000000 -29.696600 0.000000
        CHANNELS 3 Yrotation Xrotation Zrotation
        JOINT RightWrist
        {
         OFFSET 0.000000 -24.004700 0.000000
         CHANNELS 3 Yrotation Xrotation Zrotation
         End Site
         {
          OFFSET 0.000000 -17.728500 0.000000
         }
        }
       }
      }
     }
     JOINT LeftCollar
     {
      OFFSET 2.921100 9.558500 0.000000
      CHANNELS 3 Yrotation Xrotation Zrotation
      JOINT LeftShoulder
      {
       OFFSET 13.519700 0.000000 0.000000
       CHANNELS 3 Yrotation Xrotation Zrotation
       JOINT LeftElbow
       {
        OFFSET 0.000000 -29.696600 0.000000
        CHANNELS 3 Yrotation Xrotation Zrotation
        JOINT LeftWrist
        {
         OFFSET 0.000000 -24.004700 0.000000
         CHANNELS 3 Yrotation Xrotation Zrotation
         End Site
         {
          OFFSET 0.000000 -17.728500 0.000000
         }
        }
       }
      }
     }
    }
   }
  }
 }
 JOINT RightHip
 {
  OFFSET -7.771700 -0.012900 -0.001300
  CHANNELS 3 Yrotation Xrotation Zrotation
  JOINT RightKnee
  {
   OFFSET 0.000000 -40.869800 0.001200
   CHANNELS 3 Yrotation Xrotation Zrotation
   JOINT RightAnkle
   {
    OFFSET 0.000000 -39.717900 0.002100
    CHANNELS 3 Yrotation Xrotation Zrotation
    JOINT RightToe
    {
     OFFSET 0.000000 -4.965400 11.033500
     CHANNELS 3 Yrotation Xrotation Zrotation
     End Site
     {
      OFFSET 0.000000 -1.423100 5.872300
     }
    }
   }
  }
 }
 JOINT LeftHip
 {
  OFFSET 7.771700 -0.012900 -0.001300
  CHANNELS 3 Yrotation Xrotation Zrotation
  JOINT LeftKnee
  {
   OFFSET 0.000000 -40.869800 0.001200
   CHANNELS 3 Yrotation Xrotation Zrotation
   JOINT LeftAnkle
   {
    OFFSET 0.000000 -39.717900 0.002100
    CHANNELS 3 Yrotation Xrotation Zrotation
    JOINT LeftToe
    {
     OFFSET 0.000000 -4.965400 11.033500
     CHANNELS 3 Yrotation Xrotation Zrotation
     End Site
     {
      OFFSET 0.000000 -1.423100 5.872300
     }
    }
   }
  }
 }
}
MOTION
Frames: 14
Frame Time: 0.008333
0.000000 85.388000 0.000000 0.000000 -5.767877 0.000000 0.000000 11.653817 0.000000 0.000000 -5.885947 0.000000 0.000000 -0.000000 0.000000 0.000000 -0.000000 0.000000 0.000000 12.528835 0.000000 0.000000 0.711642 0.000000 0.000000 -0.000000 0.000000 0.000000 0.000000 -90.000000 0.000000 -2.309062 0.000000 0.000000 2.309062 0.000000 0.000000 -0.000000 0.000000 0.000000 -0.000000 90.000000 0.000000 -2.309062 0.000000 0.000000 2.309062 0.000000 0.000000 8.520406 0.000000 0.000000 1.905762 0.000000 -0.000000 -4.658285 0.000000 0.000000 -0.000000 0.000000 0.000000 8.520406 0.000000 0.000000 1.905762 0.000000 -0.000000 -4.658285 0.000000 0.000000 -0.000000 0.000000
-50.225401 52.943331 -12.810102 -177.748820 -17.788214 -2.194047 0.463041 16.751513 0.579308 0.042379 1.723410 0.065735 0.074632 2.878855 0.108871 0.431756 14.785526 0.623532 -3.456290 21.028591 0.122580 -3.739829 -3.295085 0.931614 0.265455 -0.866176 3.011721 -0.088891 -6.537000 -5.389752 -81.515240 -77.145170 111.805302 -5.177278 2.237971 -5.965826 -5.528352 -1.669007 -0.075567 4.101527 -4.346956 10.861514 67.071420 -62.421160 -105.788674 2.637236 -3.791788 5.349846 2.253574 -60.888086 10.709589 -170.776006 86.903434 -173.164403 -10.217184 -21.151732 13.116890 0.026904 -0.026729 0.004169 6.060851 -59.053115 -3.976244 119.461684 78.189632 117.745347 -6.859448 -19.955185 -0.326609 0.046192 0.150165 0.015568
-50.224760 52.943337 -12.811773 -177.748533 -17.784745 -2.195408 0.465372 16.750841 0.579526 0.042520 1.723296 0.065595 0.077455 2.880558 0.107635 0.439393 14.787801 0.617064 -3.323249 20.960024 0.140195 -3.593550 -3.377278 0.911609 0.256577 -0.869878 3.028437 -0.071317 -6.538424 -5.408556 -81.529799 -77.145403 111.818115 -5.171581 2.248076 -5.948400 -5.541111 -1.674529 -0.062404 4.087039 -4.349637 10.856333 67.072875 -62.424357 -105.766911 2.639246 -3.782904 5.351453 2.254587 -60.891550 10.708079 -170.844564 86.902078 -173.235460 -10.201099 -21.153064 13.112687 0.008385 -0.030805 0.005421 6.057911 -59.055968 -3.972928 119.477527 78.189876 117.760208 -6.852532 -19.959246 -0.325742 0.042106 0.151020 0.013568
-50.224579 52.943471 -12.814027 -177.746676 -17.782973 -2.194343 0.469030 16.753382 0.578172 0.042769 1.723066 0.065337 0.073557 2.881788 0.106235 0.440164 14.783297 0.619168 -3.175964 20.892082 0.147843 -3.434980 -3.466374 0.890097 0.257723 -0.866793 3.033707 -0.064929 -6.547765 -5.425538 -81.530999 -77.146133 111.832082 -5.165456 2.263672 -5.928365 -5.543970 -1.676141 -0.064684 4.064265 -4.352907 10.840592 67.081022 -62.443568 -105.741569 2.643908 -3.773765 5.349332 2.269814 -60.893378 10.696613 -170.837716 86.899643 -173.226786 -10.210137 -21.154817 13.118835 0.033687 -0.028197 0.007627 6.051572 -59.058750 -3.971065 119.489409 78.188346 117.767561 -6.844982 -19.955291 -0.324081 0.038759 0.145907 0.011443
-50.223619 52.943583 -12.816149 -177.742713 -17.779007 -2.198626 0.469420 16.754698 0.578898 0.038405 1.730816 0.063322 0.073053 2.876038 0.109200 0.444543 14.780358 0.616553 -3.019442 20.818711 0.162299 -3.266070 -3.560721 0.867379 0.259021 -0.868227 3.040626 -0.072216 -6.566555 -5.458766 -81.501318 -77.123875 111.828092 -5.162453 2.267962 -5.919064 -5.542970 -1.672694 -0.065467 4.064700 -4.363155 10.839837 67.092776 -62.453241 -105.749011 2.642640 -3.760519 5.357820 2.271027 -60.896613 10.691757 -170.879650 86.898102 -173.266247 -10.202918 -21.157239 13.119172 0.050222 -0.028043 0.008724 6.038932 -59.064386 -3.957305 119.511561 78.191075 117.786691 -6.846650 -19.952467 -0.323082 0.041452 0.144789 0.014358
-50.222784 52.943659 -12.817957 -177.752933 -17.773335 -2.198322 0.474350 16.756365 0.577908 0.039787 1.730179 0.064206 0.073314 2.876075 0.108841 0.447826 14.781034 0.613805 -2.854437 20.740434 0.177001 -3.088508 -3.656720 0.842896 0.261184 -0.875035 3.044769 -0.077003 -6.570443 -5.466439 -81.499116 -77.118308 111.835121 -5.151654 2.272381 -5.893172 -5.537088 -1.672134 -0.065392 4.068304 -4.373556 10.841724 67.094645 -62.456644 -105.755770 2.622093 -3.774808 5.375671 2.283303 -60.904910 10.701799 -170.688617 86.897088 -173.057782 -10.296975 -21.146918 13.125769 0.024009 -0.025047 0.013784 6.045581 -59.071296 -3.952719 119.522218 78.186058 117.799828 -6.849501 -19.953256 -0.324901 0.041577 0.142137 0.014531
-50.223314 52.943701 -12.819577 -177.758417 -17.767035 -2.192331 0.475113 16.758334 0.572633 0.040592 1.724796 0.063278 0.071250 2.878243 0.107984 0.449724 14.784519 0.612796 -2.682363 20.661579 0.190099 -2.903427 -3.750464 0.816327 0.265413 -0.876265 3.048462 -0.082695 -6.578912 -5.474210 -81.543979 -77.119750 111.900117 -5.149470 2.266231 -5.892871 -5.534308 -1.678050 -0.064311 4.078118 -4.378600 10.843121 67.098814 -62.458042 -105.765366 2.623156 -3.773034 5.376175 2.298446 -60.914305 10.712212 -170.324137 86.893581 -172.668113 -10.464846 -21.132376 13.143532 -0.000819 -0.017853 0.018088 6.059944 -59.076032 -3.964080 119.521023 78.183970 117.800798 -6.849856 -19.954958 -0.326494 0.043135 0.142054 0.014973
-50.222501 52.943946 -12.821438 -177.763598 -17.763056 -2.196058 0.475968 16.757751 0.573817 0.043253 1.723076 0.064490 0.071222 2.879810 0.108744 0.442692 14.792974 0.608784 -2.496537 20.583519 0.205515 -2.712327 -3.840978 0.789307 0.293119 -0.877570 3.051009 -0.116808 -6.585623 -5.484749 -81.637862 -77.110606 112.018571 -5.146069 2.267002 -5.891810 -5.517448 -1.682096 -0.066603 4.075699 -4.388001 10.847834 67.130077 -62.459180 -105.790653 2.619461 -3.782171 5.379769 2.310236 -60.917735 10.701774 -170.539593 86.895673 -172.892512 -10.381928 -21.139394 13.135576 -0.024887 -0.027989 0.011187 6.056841 -59.079939 -3.955749 119.524486 78.184517 117.809737 -6.850982 -19.956025 -0.329909 0.046409 0.143862 0.016671
-50.222157 52.944220 -12.823270 -177.764006 -17.760166 -2.200270 0.472272 16.763344 0.575243 0.044182 1.721642 0.065321 0.074787 2.873987 0.109366 0.439707 14.798749 0.607553 -2.311055 20.515145 0.220092 -2.515437 -3.927914 0.763062 0.303879 -0.880778 3.051928 -0.129138 -6.579045 -5.492386 -81.722479 -77.100633 112.111031 -5.160873 2.215599 -5.895845 -5.508878 -1.684449 -0.072987 4.074448 -4.395747 10.855059 67.169992 -62.454867 -105.811381 2.614977 -3.792204 5.386294 2.320316 -60.919131 10.680292 -170.892649 86.896961 -173.255594 -10.253900 -21.152133 13.118688 -0.060943 -0.040303 0.002843 6.049388 -59.082696 -3.948797 119.514730 78.186054 117.804967 -6.850058 -19.955220 -0.334689 0.049550 0.144738 0.017702
-50.223003 52.944393 -12.824850 -177.763493 -17.757354 -2.199472 0.469894 16.764027 0.572667 0.044227 1.721322 0.065608 0.073016 2.878390 0.108514 0.441876 14.793849 0.608439 -2.118808 20.455715 0.234043 -2.313356 -4.009227 0.737197 0.326165 -0.876426 3.047511 -0.140897 -6.573297 -5.492834 -81.814848 -77.095007 112.194928 -5.165582 2.187793 -5.909185 -5.501762 -1.678793 -0.080942 4.076890 -4.407205 10.860918 67.198398 -62.453079 -105.830995 2.634028 -3.832283 5.425194 2.335077 -60.922544 10.671078 -170.792404 86.894804 -173.148267 -10.252288 -21.153013 13.118497 0.050748 -0.031707 0.009390 6.051388 -59.085844 -3.952795 119.537571 78.191653 117.826068 -6.838268 -19.953894 -0.332004 0.047205 0.143090 0.016930
-50.224142 52.944452 -12.826158 -177.765118 -17.754389 -2.197843 0.470559 16.762053 0.570979 0.043222 1.725140 0.064414 0.073185 2.879659 0.108154 0.443129 14.796718 0.607017 -1.916615 20.394957 0.250886 -2.105448 -4.083232 0.710892 0.334021 -0.879528 3.049478 -0.118821 -6.559338 -5.487946 -81.924393 -77.103058 112.275222 -5.168244 2.172586 -5.916651 -5.502984 -1.684627 -0.085239 4.084346 -4.413367 10.865337 67.220186 -62.446560 -105.844789 2.634305 -3.828594 5.429937 2.359881 -60.927410 10.655713 -170.689461 86.892705 -173.030731 -10.263856 -21.152939 13.118312 0.012155 -0.031395 0.005345 6.054302 -59.087190 -3.957894 119.530420 78.193806 117.820316 -6.832179 -19.955488 -0.332043 0.047486 0.145377 0.015060
-50.225553 52.944197 -12.826709 -177.770793 -17.748097 -2.194280 0.474806 16.760670 0.567849 0.043301 1.729286 0.063333 0.075411 2.877209 0.108823 0.448642 14.803538 0.602613 -1.713953 20.333041 0.273338 -1.887294 -4.149792 0.681982 0.339158 -0.886457 3.054824 -0.122518 -6.562550 -5.484452 -81.977115 -77.103973 112.310274 -5.173477 2.162644 -5.917058 -5.518014 -1.693888 -0.080589 4.093324 -4.420886 10.861861 67.235588 -62.438497 -105.841670 2.629320 -3.822666 5.430500 2.377066 -60.935600 10.645302 -170.641662 86.892165 -172.982110 -10.233097 -21.154218 13.110141 0.014318 -0.032473 0.006768 6.066470 -59.094528 -3.969508 119.512709 78.188028 117.804049 -6.829180 -19.950390 -0.327139 0.044100 0.141871 0.009140
-50.227069 52.943472 -12.826089 -177.779117 -17.735562 -2.189447 0.479685 16.754901 0.563313 0.044423 1.725704 0.063953 0.075329 2.880333 0.107479 0.443103 14.796729 0.601646 -1.495739 20.285079 0.290815 -1.657979 -4.209353 0.650503 0.355758 -0.880250 3.053855 -0.125069 -6.565270 -5.481740 -81.996923 -77.109960 112.314080 -5.182520 2.133141 -5.924368 -5.513872 -1.687469 -0.094926 4.092833 -4.432737 10.869425 67.243202 -62.435634 -105.833060 2.636148 -3.832992 5.449158 2.392402 -60.949414 10.629936 -170.757621 86.891991 -173.106389 -10.159522 -21.161017 13.101204 -0.001635 -0.035382 0.001622 6.081828 -59.107374 -3.980638 119.505356 78.186414 117.797183 -6.827227 -19.948965 -0.324348 0.039989 0.141586 0.007807
-50.228689 52.942726 -12.825736 -177.782549 -17.725311 -2.185338 0.474541 16.749423 0.558927 0.044053 1.724917 0.063594 0.074591 2.879212 0.106916 0.442666 14.787394 0.597205 -1.269229 20.243224 0.311521 -1.420948 -4.261416 0.620632 0.369403 -0.870044 3.052944 -0.119984 -6.567826 -5.477993 -81.979778 -77.123498 112.269566 -5.195325 2.108283 -5.927880 -5.508377 -1.681788 -0.099163 4.092317 -4.439664 10.869416 67.251439 -62.434743 -105.825511 2.641298 -3.838371 5.476096 2.400710 -60.960460 10.619670 -170.930385 86.891226 -173.284294 -10.126354 -21.166260 13.097996 -0.008270 -0.035834 -0.002415 6.090581 -59.117261 -3.990095 119.500629 78.189242 117.792122 -6.822762 -19.947572 -0.322033 0.040125 0.142674 0.007506
